<svg width="48" height="49" viewBox="0 0 48 49" fill="none" xmlns="http://www.w3.org/2000/svg">
<path d="M12.9393 33.0956C12.3536 33.6814 12.3536 34.6311 12.9393 35.2169C13.5251 35.8027 14.4749 35.8027 15.0607 35.2169L12.9393 33.0956ZM25.0607 25.2169C25.6464 24.6311 25.6464 23.6814 25.0607 23.0956C24.4749 22.5098 23.5251 22.5098 22.9393 23.0956L25.0607 25.2169ZM22.9393 23.0956C22.3536 23.6814 22.3536 24.6311 22.9393 25.2169C23.5251 25.8027 24.4749 25.8027 25.0607 25.2169L22.9393 23.0956ZM35.0607 15.2169C35.6464 14.6311 35.6464 13.6814 35.0607 13.0956C34.4749 12.5098 33.5251 12.5098 32.9393 13.0956L35.0607 15.2169ZM25.0607 23.0956C24.4749 22.5098 23.5251 22.5098 22.9393 23.0956C22.3536 23.6814 22.3536 24.6311 22.9393 25.2169L25.0607 23.0956ZM32.9393 35.2169C33.5251 35.8027 34.4749 35.8027 35.0607 35.2169C35.6464 34.6311 35.6464 33.6814 35.0607 33.0956L32.9393 35.2169ZM22.9393 25.2169C23.5251 25.8027 24.4749 25.8027 25.0607 25.2169C25.6464 24.6311 25.6464 23.6814 25.0607 23.0956L22.9393 25.2169ZM15.0607 13.0956C14.4749 12.5098 13.5251 12.5098 12.9393 13.0956C12.3536 13.6814 12.3536 14.6311 12.9393 15.2169L15.0607 13.0956ZM15.0607 35.2169L25.0607 25.2169L22.9393 23.0956L12.9393 33.0956L15.0607 35.2169ZM25.0607 25.2169L35.0607 15.2169L32.9393 13.0956L22.9393 23.0956L25.0607 25.2169ZM22.9393 25.2169L32.9393 35.2169L35.0607 33.0956L25.0607 23.0956L22.9393 25.2169ZM25.0607 23.0956L15.0607 13.0956L12.9393 15.2169L22.9393 25.2169L25.0607 23.0956Z" fill="#383C43"/>
</svg>
