<svg width="33" height="33" viewBox="0 0 33 33" fill="none" xmlns="http://www.w3.org/2000/svg">
<path d="M24.4339 15.5086C24.3704 15.3449 24.2752 15.1954 24.1539 15.0686L17.4872 8.40189C17.3629 8.27757 17.2153 8.17896 17.0529 8.11168C16.8904 8.04439 16.7163 8.00977 16.5405 8.00977C16.1855 8.00977 15.8449 8.15082 15.5939 8.40189C15.4695 8.52621 15.3709 8.67379 15.3036 8.83622C15.2364 8.99865 15.2017 9.17274 15.2017 9.34855C15.2017 9.70362 15.3428 10.0441 15.5939 10.2952L19.9939 14.6819H9.87386C9.52024 14.6819 9.1811 14.8224 8.93105 15.0724C8.681 15.3225 8.54053 15.6616 8.54053 16.0152C8.54053 16.3688 8.681 16.708 8.93105 16.958C9.1811 17.2081 9.52024 17.3486 9.87386 17.3486H19.9939L15.5939 21.7352C15.4689 21.8592 15.3697 22.0066 15.302 22.1691C15.2343 22.3316 15.1995 22.5059 15.1995 22.6819C15.1995 22.8579 15.2343 23.0322 15.302 23.1947C15.3697 23.3571 15.4689 23.5046 15.5939 23.6286C15.7178 23.7535 15.8653 23.8527 16.0278 23.9204C16.1902 23.9881 16.3645 24.023 16.5405 24.023C16.7165 24.023 16.8908 23.9881 17.0533 23.9204C17.2158 23.8527 17.3632 23.7535 17.4872 23.6286L24.1539 16.9619C24.2752 16.8351 24.3704 16.6856 24.4339 16.5219C24.5672 16.1973 24.5672 15.8332 24.4339 15.5086Z" fill="#17C95F"/>
</svg>
