<svg width="25" height="25" viewBox="0 0 25 25" fill="none" xmlns="http://www.w3.org/2000/svg">
<circle cx="12.5" cy="12.4375" r="12" fill="white"/>
<path d="M16.5693 12.1775C16.5366 12.0931 16.4875 12.016 16.4249 11.9506L12.9871 8.51275C12.923 8.44865 12.8469 8.39779 12.7631 8.3631C12.6794 8.3284 12.5896 8.31055 12.4989 8.31055C12.3158 8.31055 12.1402 8.38328 12.0107 8.51275C11.9466 8.57686 11.8958 8.65297 11.8611 8.73673C11.8264 8.82049 11.8085 8.91026 11.8085 9.00092C11.8085 9.18402 11.8813 9.35962 12.0107 9.48909L14.2797 11.7512H9.0611C8.87875 11.7512 8.70386 11.8236 8.57492 11.9526C8.44597 12.0815 8.37354 12.2564 8.37354 12.4387C8.37354 12.6211 8.44597 12.796 8.57492 12.9249C8.70386 13.0539 8.87875 13.1263 9.0611 13.1263H14.2797L12.0107 15.3884C11.9463 15.4523 11.8952 15.5284 11.8602 15.6121C11.8253 15.6959 11.8074 15.7858 11.8074 15.8766C11.8074 15.9673 11.8253 16.0572 11.8602 16.141C11.8952 16.2248 11.9463 16.3008 12.0107 16.3647C12.0747 16.4292 12.1507 16.4803 12.2345 16.5152C12.3183 16.5501 12.4082 16.5681 12.4989 16.5681C12.5897 16.5681 12.6796 16.5501 12.7633 16.5152C12.8471 16.4803 12.9232 16.4292 12.9871 16.3647L16.4249 12.9269C16.4875 12.8615 16.5366 12.7844 16.5693 12.7C16.6381 12.5326 16.6381 12.3449 16.5693 12.1775Z" fill="#0E1E14"/>
</svg>
